<svg xmlns="http://www.w3.org/2000/svg" xmlns:xlink="http://www.w3.org/1999/xlink" width="800" height="521.04"><rect width="800" height="521.04" rx="0" ry="0" class="a"/><svg height="521.04" viewBox="0 0 80 52.104" width="800" xmlns="http://www.w3.org/2000/svg" xmlns:xlink="http://www.w3.org/1999/xlink"><style>@keyframes e{0%{transform:translateX(0)}99.2%{transform:translateX(-80px)}to{transform:translateX(-160px)}}.a{fill:#282d35}.c{fill:#b9c0cb;white-space:pre}</style><g font-family="Monaco,Consolas,Menlo,'Bitstream Vera Sans Mono','Powerline Symbols',monospace" font-size="1.67"><defs><symbol id="1"><text y="1.67" class="c">======================================================================</text></symbol><symbol id="a"><path fill="transparent" d="M0 0h80v24H0z"/></symbol></defs><path class="a" d="M0 0h80v52.104H0z"/><g style="animation-duration:.034145s;animation-iteration-count:infinite;animation-name:e;animation-timing-function:steps(1,end)"><svg width="240"><svg><use xlink:href="#a"/></svg><svg x="80"><use xlink:href="#a"/><use xlink:href="#1"/><text x="2.004" y="3.841" class="c">KaliAgent</text><text x="12.024" y="3.841" class="c">v3</text><text x="15.03" y="3.841" class="c">-</text><text x="17.034" y="3.841" class="c">Authorization</text><text x="31.062" y="3.841" class="c">System</text><text x="2.004" y="6.012" class="c">Multi-Level</text><text x="14.028" y="6.012" class="c">Safety</text><text x="21.042" y="6.012" class="c">Gates</text><use xlink:href="#1" y="6.513"/></svg><svg x="160"><use xlink:href="#a"/><text y="3.841" class="c">📝</text><text x="3.006" y="3.841" class="c">Requesting</text><text x="14.028" y="3.841" class="c">Authorizations:</text><text x="3.006" y="8.183" class="c">Request</text><text x="11.022" y="8.183" class="c">1:</text><text x="14.028" y="8.183" class="c">nmap_scan</text><text x="24.048" y="8.183" class="c">(BASIC)</text><text y="10.354" class="c">2026-04-21</text><text x="11.022" y="10.354" class="c">14:16:14,825</text><text x="24.048" y="10.354" class="c">-</text><text x="26.052" y="10.354" class="c">INFO</text><text x="31.062" y="10.354" class="c">-</text><text x="33.066" y="10.354" class="c">Created</text><text x="41.082" y="10.354" class="c">token</text><text x="47.094" y="10.354" class="c">4e86ea71eda033c4</text><text x="64.128" y="10.354" class="c">for</text><text x="68.136" y="10.354" class="c">nmap_scan</text><text x="78.156" y="10.354" class="c">(B</text><text y="12.525" class="c">ASIC)</text><text x="6.012" y="14.696" class="c">Status:</text><text x="14.028" y="14.696" class="c">✅</text><text x="16.032" y="14.696" class="c">APPROVED</text><text x="6.012" y="16.867" class="c">Token:</text><text x="14.028" y="16.867" class="c">4e86ea71eda033c4</text><text x="3.006" y="21.209" class="c">Request</text><text x="11.022" y="21.209" class="c">2:</text><text x="14.028" y="21.209" class="c">sql_injection</text><text x="28.056" y="21.209" class="c">(ADVANCED)</text><text x="6.012" y="23.38" class="c">Status:</text><text x="14.028" y="23.38" class="c">⏳</text><text x="16.032" y="23.38" class="c">PENDING</text><text x="6.012" y="25.551" class="c">Message:</text><text x="15.03" y="25.551" class="c">PIN</text><text x="19.038" y="25.551" class="c">required</text><text x="28.056" y="25.551" class="c">for</text><text x="32.064" y="25.551" class="c">ADVANCED</text><text x="41.082" y="25.551" class="c">authorization</text><text x="3.006" y="29.893" class="c">Request</text><text x="11.022" y="29.893" class="c">3:</text><text x="14.028" y="29.893" class="c">kernel_exploit</text><text x="29.058" y="29.893" class="c">(CRITICAL)</text><text x="6.012" y="32.064" class="c">Status:</text><text x="14.028" y="32.064" class="c">🔒</text><text x="17.034" y="32.064" class="c">REQUIRES</text><text x="26.052" y="32.064" class="c">PIN</text><text x="6.012" y="34.235" class="c">Message:</text><text x="15.03" y="34.235" class="c">PIN</text><text x="19.038" y="34.235" class="c">required</text><text x="28.056" y="34.235" class="c">for</text><text x="32.064" y="34.235" class="c">CRITICAL</text><text x="41.082" y="34.235" class="c">authorization</text><text y="38.577" class="c">📋</text><text x="3.006" y="38.577" class="c">Pending</text><text x="11.022" y="38.577" class="c">Authorizations:</text><text x="3.006" y="40.748" class="c">1</text><text x="5.01" y="40.748" class="c">authorization(s)</text><text x="22.044" y="40.748" class="c">pending</text><text x="30.06" y="40.748" class="c">approval</text><use xlink:href="#1" y="43.42"/><text x="2.004" y="47.261" class="c">Demo</text><text x="7.014" y="47.261" class="c">completed</text><text x="17.034" y="47.261" class="c">at</text><text x="20.04" y="47.261" class="c">2026-04-21</text><text x="31.062" y="47.261" class="c">14:16:14</text><use xlink:href="#1" y="47.762"/></svg></svg></g></g></svg></svg>