<svg xmlns="http://www.w3.org/2000/svg" xmlns:xlink="http://www.w3.org/1999/xlink" width="800" height="521.04"><rect width="800" height="521.04" rx="0" ry="0" class="a"/><svg height="521.04" viewBox="0 0 80 52.104" width="800" xmlns="http://www.w3.org/2000/svg" xmlns:xlink="http://www.w3.org/1999/xlink"><style>@keyframes e{0%{transform:translateX(0)}95.5%{transform:translateX(-80px)}95.9%{transform:translateX(-160px)}96.2%{transform:translateX(-240px)}96.3%{transform:translateX(-320px)}96.4%{transform:translateX(-400px)}96.5%{transform:translateX(-480px)}97.6%{transform:translateX(-560px)}97.8%{transform:translateX(-640px)}98.4%{transform:translateX(-720px)}98.5%{transform:translateX(-800px)}99.2%{transform:translateX(-880px)}99.3%{transform:translateX(-960px)}99.9%{transform:translateX(-1040px)}to{transform:translateX(-1120px)}}.a{fill:#282d35}.c{fill:#b9c0cb;white-space:pre}</style><g font-family="Monaco,Consolas,Menlo,'Bitstream Vera Sans Mono','Powerline Symbols',monospace" font-size="1.67"><defs><symbol id="1"><text y="1.67" class="c">======================================================================</text></symbol><symbol id="2"><text x="2.004" y="1.67" class="c">KaliAgent</text><text x="12.024" y="1.67" class="c">v3</text><text x="15.03" y="1.67" class="c">-</text><text x="17.034" y="1.67" class="c">C2</text><text x="20.04" y="1.67" class="c">Infrastructure</text></symbol><symbol id="3"><text x="2.004" y="1.67" class="c">Multi-C2</text><text x="11.022" y="1.67" class="c">Command</text><text x="19.038" y="1.67" class="c">&amp;</text><text x="21.042" y="1.67" class="c">Control</text></symbol><symbol id="4"><text y="1.67" class="c">🎯</text><text x="3.006" y="1.67" class="c">Sliver</text><text x="10.02" y="1.67" class="c">C2</text><text x="13.026" y="1.67" class="c">Client</text></symbol><symbol id="5"><text x="3.006" y="1.67" class="c">Connecting</text><text x="14.028" y="1.67" class="c">to</text><text x="17.034" y="1.67" class="c">Sliver...</text></symbol><symbol id="6"><text y="1.67" class="c">WARNING:c2.sliver_client:Sliver</text><text x="32.064" y="1.67" class="c">gRPC</text><text x="37.074" y="1.67" class="c">not</text><text x="41.082" y="1.67" class="c">available</text><text x="51.102" y="1.67" class="c">-</text><text x="53.106" y="1.67" class="c">using</text><text x="59.118" y="1.67" class="c">mock</text><text x="64.128" y="1.67" class="c">mode</text></symbol><symbol id="7"><text x="3.006" y="1.67" class="c">Status:</text><text x="11.022" y="1.67" class="c">✅</text><text x="13.026" y="1.67" class="c">Connected</text></symbol><symbol id="8"><text x="3.006" y="1.67" class="c">Generating</text><text x="14.028" y="1.67" class="c">Implants:</text></symbol><symbol id="9"><text y="1.67" class="c">WARNING:c2.sliver_client:Mock</text><text x="30.06" y="1.67" class="c">mode</text><text x="35.07" y="1.67" class="c">-</text><text x="37.074" y="1.67" class="c">simulating</text><text x="48.096" y="1.67" class="c">implant</text><text x="56.112" y="1.67" class="c">generation</text></symbol><symbol id="10"><text x="6.012" y="1.67" class="c">✅</text><text x="8.016" y="1.67" class="c">reverse_http</text><text x="29.058" y="1.67" class="c">(port</text><text x="35.07" y="1.67" class="c">80)</text></symbol><symbol id="11"><text x="6.012" y="1.67" class="c">✅</text><text x="8.016" y="1.67" class="c">reverse_https</text><text x="29.058" y="1.67" class="c">(port</text><text x="35.07" y="1.67" class="c">443)</text></symbol><symbol id="12"><text x="6.012" y="1.67" class="c">✅</text><text x="8.016" y="1.67" class="c">reverse_tcp</text><text x="29.058" y="1.67" class="c">(port</text><text x="35.07" y="1.67" class="c">4444)</text></symbol><symbol id="13"><text x="3.006" y="1.67" class="c">Total</text><text x="9.018" y="1.67" class="c">Implants:</text><text x="19.038" y="1.67" class="c">1</text></symbol><symbol id="14"><text y="1.67" class="c">🏰</text><text x="3.006" y="1.67" class="c">Empire</text><text x="10.02" y="1.67" class="c">C2</text><text x="13.026" y="1.67" class="c">Client</text></symbol><symbol id="15"><text x="3.006" y="1.67" class="c">Connecting</text><text x="14.028" y="1.67" class="c">to</text><text x="17.034" y="1.67" class="c">Empire...</text></symbol><symbol id="16"><text y="1.67" class="c">WARNING:c2.empire_client:Empire</text><text x="32.064" y="1.67" class="c">API</text><text x="36.072" y="1.67" class="c">not</text><text x="40.08" y="1.67" class="c">available</text><text x="50.1" y="1.67" class="c">-</text><text x="52.104" y="1.67" class="c">using</text><text x="58.116" y="1.67" class="c">mock</text><text x="63.126" y="1.67" class="c">mode</text></symbol><symbol id="17"><text x="3.006" y="1.67" class="c">Creating</text><text x="12.024" y="1.67" class="c">Listeners:</text></symbol><symbol id="18"><text y="1.67" class="c">WARNING:c2.empire_client:Mock</text><text x="30.06" y="1.67" class="c">mode</text><text x="35.07" y="1.67" class="c">-</text><text x="37.074" y="1.67" class="c">simulating</text><text x="48.096" y="1.67" class="c">listener</text><text x="57.114" y="1.67" class="c">creation</text></symbol><symbol id="19"><text x="6.012" y="1.67" class="c">✅</text><text x="8.016" y="1.67" class="c">http</text><text x="29.058" y="1.67" class="c">(port</text><text x="35.07" y="1.67" class="c">8080)</text></symbol><symbol id="20"><text x="6.012" y="1.67" class="c">✅</text><text x="8.016" y="1.67" class="c">https</text><text x="29.058" y="1.67" class="c">(port</text><text x="35.07" y="1.67" class="c">8443)</text></symbol><symbol id="a"><path fill="transparent" d="M0 0h80v24H0z"/></symbol></defs><path class="a" d="M0 0h80v52.104H0z"/><g style="animation-duration:.088755s;animation-iteration-count:infinite;animation-name:e;animation-timing-function:steps(1,end)"><svg width="1200"><svg><use xlink:href="#a"/></svg><svg x="80"><use xlink:href="#a"/><use xlink:href="#1"/><use xlink:href="#2" y="2.171"/><use xlink:href="#3" y="4.342"/><use xlink:href="#1" y="6.513"/><use xlink:href="#4" y="10.855"/></svg><svg x="160"><use xlink:href="#a"/><use xlink:href="#1"/><use xlink:href="#2" y="2.171"/><use xlink:href="#3" y="4.342"/><use xlink:href="#1" y="6.513"/><use xlink:href="#4" y="10.855"/><use xlink:href="#5" y="15.197"/><use xlink:href="#6" y="17.368"/><use xlink:href="#7" y="19.539"/><use xlink:href="#8" y="23.881"/><use xlink:href="#9" y="26.052"/></svg><svg x="240"><use xlink:href="#a"/><use xlink:href="#1"/><use xlink:href="#2" y="2.171"/><use xlink:href="#3" y="4.342"/><use xlink:href="#1" y="6.513"/><use xlink:href="#4" y="10.855"/><use xlink:href="#5" y="15.197"/><use xlink:href="#6" y="17.368"/><use xlink:href="#7" y="19.539"/><use xlink:href="#8" y="23.881"/><use xlink:href="#9" y="26.052"/><use xlink:href="#10" y="28.223"/><use xlink:href="#9" y="30.394"/></svg><svg x="320"><use xlink:href="#a"/><use xlink:href="#1"/><use xlink:href="#2" y="2.171"/><use xlink:href="#3" y="4.342"/><use xlink:href="#1" y="6.513"/><use xlink:href="#4" y="10.855"/><use xlink:href="#5" y="15.197"/><use xlink:href="#6" y="17.368"/><use xlink:href="#7" y="19.539"/><use xlink:href="#8" y="23.881"/><use xlink:href="#9" y="26.052"/><use xlink:href="#10" y="28.223"/><use xlink:href="#9" y="30.394"/><use xlink:href="#11" y="32.565"/></svg><svg x="400"><use xlink:href="#a"/><use xlink:href="#1"/><use xlink:href="#2" y="2.171"/><use xlink:href="#3" y="4.342"/><use xlink:href="#1" y="6.513"/><use xlink:href="#4" y="10.855"/><use xlink:href="#5" y="15.197"/><use xlink:href="#6" y="17.368"/><use xlink:href="#7" y="19.539"/><use xlink:href="#8" y="23.881"/><use xlink:href="#9" y="26.052"/><use xlink:href="#10" y="28.223"/><use xlink:href="#9" y="30.394"/><use xlink:href="#11" y="32.565"/><use xlink:href="#9" y="34.736"/><use xlink:href="#12" y="36.907"/><use xlink:href="#13" y="41.249"/><use xlink:href="#14" y="45.591"/></svg><svg x="480"><use xlink:href="#a"/><use xlink:href="#2"/><use xlink:href="#3" y="2.171"/><use xlink:href="#1" y="4.342"/><use xlink:href="#4" y="8.684"/><use xlink:href="#5" y="13.026"/><use xlink:href="#6" y="15.197"/><use xlink:href="#7" y="17.368"/><use xlink:href="#8" y="21.71"/><use xlink:href="#9" y="23.881"/><use xlink:href="#10" y="26.052"/><use xlink:href="#9" y="28.223"/><use xlink:href="#11" y="30.394"/><use xlink:href="#9" y="32.565"/><use xlink:href="#12" y="34.736"/><use xlink:href="#13" y="39.078"/><use xlink:href="#14" y="43.42"/><use xlink:href="#15" y="47.762"/></svg><svg x="560"><use xlink:href="#a"/><use xlink:href="#3"/><use xlink:href="#1" y="2.171"/><use xlink:href="#4" y="6.513"/><use xlink:href="#5" y="10.855"/><use xlink:href="#6" y="13.026"/><use xlink:href="#7" y="15.197"/><use xlink:href="#8" y="19.539"/><use xlink:href="#9" y="21.71"/><use xlink:href="#10" y="23.881"/><use xlink:href="#9" y="26.052"/><use xlink:href="#11" y="28.223"/><use xlink:href="#9" y="30.394"/><use xlink:href="#12" y="32.565"/><use xlink:href="#13" y="36.907"/><use xlink:href="#14" y="41.249"/><use xlink:href="#15" y="45.591"/><use xlink:href="#16" y="47.762"/></svg><svg x="640"><use xlink:href="#a"/><use xlink:href="#4"/><use xlink:href="#5" y="4.342"/><use xlink:href="#6" y="6.513"/><use xlink:href="#7" y="8.684"/><use xlink:href="#8" y="13.026"/><use xlink:href="#9" y="15.197"/><use xlink:href="#10" y="17.368"/><use xlink:href="#9" y="19.539"/><use xlink:href="#11" y="21.71"/><use xlink:href="#9" y="23.881"/><use xlink:href="#12" y="26.052"/><use xlink:href="#13" y="30.394"/><use xlink:href="#14" y="34.736"/><use xlink:href="#15" y="39.078"/><use xlink:href="#16" y="41.249"/><use xlink:href="#7" y="43.42"/><use xlink:href="#17" y="47.762"/></svg><svg x="720"><use xlink:href="#a"/><use xlink:href="#5" y="2.171"/><use xlink:href="#6" y="4.342"/><use xlink:href="#7" y="6.513"/><use xlink:href="#8" y="10.855"/><use xlink:href="#9" y="13.026"/><use xlink:href="#10" y="15.197"/><use xlink:href="#9" y="17.368"/><use xlink:href="#11" y="19.539"/><use xlink:href="#9" y="21.71"/><use xlink:href="#12" y="23.881"/><use xlink:href="#13" y="28.223"/><use xlink:href="#14" y="32.565"/><use xlink:href="#15" y="36.907"/><use xlink:href="#16" y="39.078"/><use xlink:href="#7" y="41.249"/><use xlink:href="#17" y="45.591"/><use xlink:href="#18" y="47.762"/></svg><svg x="800"><use xlink:href="#a"/><use xlink:href="#5"/><use xlink:href="#6" y="2.171"/><use xlink:href="#7" y="4.342"/><use xlink:href="#8" y="8.684"/><use xlink:href="#9" y="10.855"/><use xlink:href="#10" y="13.026"/><use xlink:href="#9" y="15.197"/><use xlink:href="#11" y="17.368"/><use xlink:href="#9" y="19.539"/><use xlink:href="#12" y="21.71"/><use xlink:href="#13" y="26.052"/><use xlink:href="#14" y="30.394"/><use xlink:href="#15" y="34.736"/><use xlink:href="#16" y="36.907"/><use xlink:href="#7" y="39.078"/><use xlink:href="#17" y="43.42"/><use xlink:href="#18" y="45.591"/><use xlink:href="#19" y="47.762"/></svg><svg x="880"><use xlink:href="#a"/><use xlink:href="#6"/><use xlink:href="#7" y="2.171"/><use xlink:href="#8" y="6.513"/><use xlink:href="#9" y="8.684"/><use xlink:href="#10" y="10.855"/><use xlink:href="#9" y="13.026"/><use xlink:href="#11" y="15.197"/><use xlink:href="#9" y="17.368"/><use xlink:href="#12" y="19.539"/><use xlink:href="#13" y="23.881"/><use xlink:href="#14" y="28.223"/><use xlink:href="#15" y="32.565"/><use xlink:href="#16" y="34.736"/><use xlink:href="#7" y="36.907"/><use xlink:href="#17" y="41.249"/><use xlink:href="#18" y="43.42"/><use xlink:href="#19" y="45.591"/><use xlink:href="#18" y="47.762"/></svg><svg x="960"><use xlink:href="#a"/><use xlink:href="#7"/><use xlink:href="#8" y="4.342"/><use xlink:href="#9" y="6.513"/><use xlink:href="#10" y="8.684"/><use xlink:href="#9" y="10.855"/><use xlink:href="#11" y="13.026"/><use xlink:href="#9" y="15.197"/><use xlink:href="#12" y="17.368"/><use xlink:href="#13" y="21.71"/><use xlink:href="#14" y="26.052"/><use xlink:href="#15" y="30.394"/><use xlink:href="#16" y="32.565"/><use xlink:href="#7" y="34.736"/><use xlink:href="#17" y="39.078"/><use xlink:href="#18" y="41.249"/><use xlink:href="#19" y="43.42"/><use xlink:href="#18" y="45.591"/><use xlink:href="#20" y="47.762"/></svg><svg x="1040"><use xlink:href="#a"/><use xlink:href="#8" y="2.171"/><use xlink:href="#9" y="4.342"/><use xlink:href="#10" y="6.513"/><use xlink:href="#9" y="8.684"/><use xlink:href="#11" y="10.855"/><use xlink:href="#9" y="13.026"/><use xlink:href="#12" y="15.197"/><use xlink:href="#13" y="19.539"/><use xlink:href="#14" y="23.881"/><use xlink:href="#15" y="28.223"/><use xlink:href="#16" y="30.394"/><use xlink:href="#7" y="32.565"/><use xlink:href="#17" y="36.907"/><use xlink:href="#18" y="39.078"/><use xlink:href="#19" y="41.249"/><use xlink:href="#18" y="43.42"/><use xlink:href="#20" y="45.591"/><use xlink:href="#18" y="47.762"/></svg><svg x="1120"><use xlink:href="#a"/><use xlink:href="#12"/><use xlink:href="#13" y="4.342"/><use xlink:href="#14" y="8.684"/><use xlink:href="#15" y="13.026"/><use xlink:href="#16" y="15.197"/><use xlink:href="#7" y="17.368"/><use xlink:href="#17" y="21.71"/><use xlink:href="#18" y="23.881"/><use xlink:href="#19" y="26.052"/><use xlink:href="#18" y="28.223"/><use xlink:href="#20" y="30.394"/><use xlink:href="#18" y="32.565"/><text x="6.012" y="36.406" class="c">✅</text><text x="8.016" y="36.406" class="c">metasploit</text><text x="29.058" y="36.406" class="c">(port</text><text x="35.07" y="36.406" class="c">4444)</text><text x="3.006" y="40.748" class="c">Total</text><text x="9.018" y="40.748" class="c">Listeners:</text><text x="20.04" y="40.748" class="c">3</text><use xlink:href="#1" y="43.42"/><text x="2.004" y="47.261" class="c">Demo</text><text x="7.014" y="47.261" class="c">completed</text><text x="17.034" y="47.261" class="c">at</text><text x="20.04" y="47.261" class="c">2026-04-21</text><text x="31.062" y="47.261" class="c">14:16:15</text><use xlink:href="#1" y="47.762"/></svg></svg></g></g></svg></svg>