<svg xmlns="http://www.w3.org/2000/svg" xmlns:xlink="http://www.w3.org/1999/xlink" width="800" height="521.04"><rect width="800" height="521.04" rx="0" ry="0" class="a"/><svg height="521.04" viewBox="0 0 80 52.104" width="800" xmlns="http://www.w3.org/2000/svg" xmlns:xlink="http://www.w3.org/1999/xlink"><style>@keyframes e{0%{transform:translateX(0)}75.5%{transform:translateX(-80px)}76.1%{transform:translateX(-160px)}76.6%{transform:translateX(-240px)}81.1%{transform:translateX(-320px)}97.8%{transform:translateX(-400px)}98.2%{transform:translateX(-480px)}98.3%{transform:translateX(-880px)}98.7%{transform:translateX(-960px)}98.9%{transform:translateX(-1040px)}99.4%{transform:translateX(-1120px)}99.9%{transform:translateX(-1200px)}to{transform:translateX(-1280px)}}.a{fill:#282d35}.c{fill:#b9c0cb;white-space:pre}</style><g font-family="Monaco,Consolas,Menlo,'Bitstream Vera Sans Mono','Powerline Symbols',monospace" font-size="1.67"><defs><symbol id="1"><text y="1.67" class="c">======================================================================</text></symbol><symbol id="2"><text x="2.004" y="1.67" class="c">KaliAgent</text><text x="12.024" y="1.67" class="c">v3</text><text x="15.03" y="1.67" class="c">-</text><text x="17.034" y="1.67" class="c">Security</text><text x="26.052" y="1.67" class="c">Audit</text><text x="32.064" y="1.67" class="c">&amp;</text><text x="34.068" y="1.67" class="c">Monitoring</text></symbol><symbol id="3"><text x="2.004" y="1.67" class="c">Production-Ready</text><text x="19.038" y="1.67" class="c">Security</text><text x="28.056" y="1.67" class="c">Posture</text></symbol><symbol id="4"><text y="1.67" class="c">🛡️</text><text x="5.01" y="1.67" class="c">Security</text><text x="14.028" y="1.67" class="c">Audit</text></symbol><symbol id="5"><text y="1.67" class="c">2026-04-21</text><text x="11.022" y="1.67" class="c">14:16:15,217</text><text x="24.048" y="1.67" class="c">-</text><text x="26.052" y="1.67" class="c">INFO</text><text x="31.062" y="1.67" class="c">-</text><text x="33.066" y="1.67" class="c">Security</text><text x="42.084" y="1.67" class="c">auditor</text><text x="50.1" y="1.67" class="c">initialized</text><text x="62.124" y="1.67" class="c">(config:</text><text x="71.142" y="1.67" class="c">/tmp/audi</text></symbol><symbol id="6"><text y="1.67" class="c">t_demo)</text></symbol><symbol id="7"><text x="3.006" y="1.67" class="c">Running</text><text x="11.022" y="1.67" class="c">Security</text><text x="20.04" y="1.67" class="c">Checks...</text></symbol><symbol id="8"><text y="1.67" class="c">2026-04-21</text><text x="11.022" y="1.67" class="c">14:16:15,217</text><text x="24.048" y="1.67" class="c">-</text><text x="26.052" y="1.67" class="c">INFO</text><text x="31.062" y="1.67" class="c">-</text><text x="33.066" y="1.67" class="c">Running</text><text x="41.082" y="1.67" class="c">security</text><text x="50.1" y="1.67" class="c">checks...</text></symbol><symbol id="9"><text y="1.67" class="c">2026-04-21</text><text x="11.022" y="1.67" class="c">14:16:15,217</text><text x="24.048" y="1.67" class="c">-</text><text x="26.052" y="1.67" class="c">WARNING</text><text x="34.068" y="1.67" class="c">-</text><text x="36.072" y="1.67" class="c">Security</text><text x="45.09" y="1.67" class="c">finding:</text><text x="54.108" y="1.67" class="c">World-writable</text><text x="69.138" y="1.67" class="c">files</text><text x="75.15" y="1.67" class="c">in</text><text x="78.156" y="1.67" class="c">/t</text></symbol><symbol id="10"><text y="1.67" class="c">mp</text><text x="3.006" y="1.67" class="c">(low)</text></symbol><symbol id="11"><text y="1.67" class="c">2026-04-21</text><text x="11.022" y="1.67" class="c">14:16:15,219</text><text x="24.048" y="1.67" class="c">-</text><text x="26.052" y="1.67" class="c">WARNING</text><text x="34.068" y="1.67" class="c">-</text><text x="36.072" y="1.67" class="c">Security</text><text x="45.09" y="1.67" class="c">finding:</text><text x="54.108" y="1.67" class="c">Sensitive</text><text x="64.128" y="1.67" class="c">ports</text><text x="70.14" y="1.67" class="c">open</text><text x="75.15" y="1.67" class="c">on</text><text x="78.156" y="1.67" class="c">lo</text></symbol><symbol id="12"><text y="1.67" class="c">calhost</text><text x="8.016" y="1.67" class="c">(medium)</text></symbol><symbol id="13"><text y="1.67" class="c">2026-04-21</text><text x="11.022" y="1.67" class="c">14:16:15,227</text><text x="24.048" y="1.67" class="c">-</text><text x="26.052" y="1.67" class="c">WARNING</text><text x="34.068" y="1.67" class="c">-</text><text x="36.072" y="1.67" class="c">Security</text><text x="45.09" y="1.67" class="c">finding:</text><text x="54.108" y="1.67" class="c">Password</text><text x="63.126" y="1.67" class="c">expiration</text><text x="74.148" y="1.67" class="c">not</text><text x="78.156" y="1.67" class="c">en</text></symbol><symbol id="14"><text y="1.67" class="c">forced</text><text x="7.014" y="1.67" class="c">(medium)</text></symbol><symbol id="15"><text y="1.67" class="c">2026-04-21</text><text x="11.022" y="1.67" class="c">14:16:15,227</text><text x="24.048" y="1.67" class="c">-</text><text x="26.052" y="1.67" class="c">INFO</text><text x="31.062" y="1.67" class="c">-</text><text x="33.066" y="1.67" class="c">Security</text><text x="42.084" y="1.67" class="c">checks</text><text x="49.098" y="1.67" class="c">complete:</text><text x="59.118" y="1.67" class="c">3</text><text x="61.122" y="1.67" class="c">findings</text></symbol><symbol id="16"><text x="3.006" y="1.67" class="c">Findings:</text><text x="13.026" y="1.67" class="c">3</text></symbol><symbol id="17"><text x="3.006" y="1.67" class="c">🔵</text><text x="6.012" y="1.67" class="c">Finding</text><text x="14.028" y="1.67" class="c">1:</text><text x="17.034" y="1.67" class="c">file_permissions</text></symbol><symbol id="18"><text x="6.012" y="1.67" class="c">Issue:</text><text x="13.026" y="1.67" class="c">N/A</text></symbol><symbol id="19"><text x="6.012" y="1.67" class="c">Recommendation:</text><text x="22.044" y="1.67" class="c">N/A</text></symbol><symbol id="20"><text x="3.006" y="1.67" class="c">🔵</text><text x="6.012" y="1.67" class="c">Finding</text><text x="14.028" y="1.67" class="c">2:</text><text x="17.034" y="1.67" class="c">network_security</text></symbol><symbol id="21"><text x="3.006" y="1.67" class="c">🔵</text><text x="6.012" y="1.67" class="c">Finding</text><text x="14.028" y="1.67" class="c">3:</text><text x="17.034" y="1.67" class="c">password_policy</text></symbol><symbol id="22"><text x="3.006" y="1.67" class="c">Security</text><text x="12.024" y="1.67" class="c">Score:</text></symbol><symbol id="23"><text x="6.012" y="1.67" class="c">Score:</text><text x="13.026" y="1.67" class="c">88/100</text></symbol><symbol id="24"><text x="6.012" y="1.67" class="c">Grade:</text><text x="13.026" y="1.67" class="c">B</text></symbol><symbol id="25"><text y="1.67" class="c">📊</text><text x="3.006" y="1.67" class="c">System</text><text x="10.02" y="1.67" class="c">Monitoring</text></symbol><symbol id="26"><text y="1.67" class="c">2026-04-21</text><text x="11.022" y="1.67" class="c">14:16:15,228</text><text x="24.048" y="1.67" class="c">-</text><text x="26.052" y="1.67" class="c">INFO</text><text x="31.062" y="1.67" class="c">-</text><text x="33.066" y="1.67" class="c">System</text><text x="40.08" y="1.67" class="c">monitor</text><text x="48.096" y="1.67" class="c">initialized</text><text x="60.12" y="1.67" class="c">(config:</text><text x="69.138" y="1.67" class="c">/tmp/monito</text></symbol><symbol id="27"><text y="1.67" class="c">r_demo)</text></symbol><symbol id="28"><text x="3.006" y="1.67" class="c">System</text><text x="10.02" y="1.67" class="c">Health:</text><text x="18.036" y="1.67" class="c">HEALTHY</text></symbol><symbol id="29"><text x="6.012" y="1.67" class="c">CPU</text><text x="10.02" y="1.67" class="c">Usage:</text><text x="20.04" y="1.67" class="c">25.0%</text></symbol><symbol id="30"><text x="6.012" y="1.67" class="c">Memory</text><text x="13.026" y="1.67" class="c">Usage:</text><text x="20.04" y="1.67" class="c">50.0%</text></symbol><symbol id="31"><text x="6.012" y="1.67" class="c">Disk</text><text x="11.022" y="1.67" class="c">Usage:</text><text x="20.04" y="1.67" class="c">40.0%</text></symbol><symbol id="32"><text x="3.006" y="1.67" class="c">Active</text><text x="10.02" y="1.67" class="c">Alerts:</text><text x="18.036" y="1.67" class="c">0</text></symbol><symbol id="33"><text y="1.67" class="c">📝</text><text x="3.006" y="1.67" class="c">Audit</text><text x="9.018" y="1.67" class="c">Logging</text></symbol><symbol id="34"><text y="1.67" class="c">2026-04-21</text><text x="11.022" y="1.67" class="c">14:16:15,228</text><text x="24.048" y="1.67" class="c">-</text><text x="26.052" y="1.67" class="c">INFO</text><text x="31.062" y="1.67" class="c">-</text><text x="33.066" y="1.67" class="c">Audit</text><text x="39.078" y="1.67" class="c">log:</text><text x="44.088" y="1.67" class="c">admin</text><text x="50.1" y="1.67" class="c">security_scan</text><text x="64.128" y="1.67" class="c">on</text><text x="67.134" y="1.67" class="c">system</text><text x="74.148" y="1.67" class="c">-&gt;</text><text x="77.154" y="1.67" class="c">suc</text></symbol><symbol id="35"><text y="1.67" class="c">cess</text></symbol><symbol id="36"><text y="1.67" class="c">2026-04-21</text><text x="11.022" y="1.67" class="c">14:16:15,228</text><text x="24.048" y="1.67" class="c">-</text><text x="26.052" y="1.67" class="c">INFO</text><text x="31.062" y="1.67" class="c">-</text><text x="33.066" y="1.67" class="c">Audit</text><text x="39.078" y="1.67" class="c">log:</text><text x="44.088" y="1.67" class="c">admin</text><text x="50.1" y="1.67" class="c">view_findings</text><text x="64.128" y="1.67" class="c">on</text><text x="67.134" y="1.67" class="c">dashboard</text><text x="77.154" y="1.67" class="c">-&gt;</text></symbol><symbol id="37"><text y="1.67" class="c">success</text></symbol><symbol id="a"><path fill="transparent" d="M0 0h80v24H0z"/></symbol></defs><path class="a" d="M0 0h80v52.104H0z"/><g style="animation-duration:.047961s;animation-iteration-count:infinite;animation-name:e;animation-timing-function:steps(1,end)"><svg width="1360"><svg><use xlink:href="#a"/></svg><svg x="80"><use xlink:href="#a"/><use xlink:href="#1"/><use xlink:href="#2" y="2.171"/><use xlink:href="#3" y="4.342"/><use xlink:href="#1" y="6.513"/><use xlink:href="#4" y="10.855"/></svg><svg x="160"><use xlink:href="#a"/><use xlink:href="#1"/><use xlink:href="#2" y="2.171"/><use xlink:href="#3" y="4.342"/><use xlink:href="#1" y="6.513"/><use xlink:href="#4" y="10.855"/><use xlink:href="#5" y="15.197"/><use xlink:href="#6" y="17.368"/><use xlink:href="#7" y="19.539"/><use xlink:href="#8" y="21.71"/></svg><svg x="240"><use xlink:href="#a"/><use xlink:href="#1"/><use xlink:href="#2" y="2.171"/><use xlink:href="#3" y="4.342"/><use xlink:href="#1" y="6.513"/><use xlink:href="#4" y="10.855"/><use xlink:href="#5" y="15.197"/><use xlink:href="#6" y="17.368"/><use xlink:href="#7" y="19.539"/><use xlink:href="#8" y="21.71"/><use xlink:href="#9" y="23.881"/><use xlink:href="#10" y="26.052"/></svg><svg x="320"><use xlink:href="#a"/><use xlink:href="#1"/><use xlink:href="#2" y="2.171"/><use xlink:href="#3" y="4.342"/><use xlink:href="#1" y="6.513"/><use xlink:href="#4" y="10.855"/><use xlink:href="#5" y="15.197"/><use xlink:href="#6" y="17.368"/><use xlink:href="#7" y="19.539"/><use xlink:href="#8" y="21.71"/><use xlink:href="#9" y="23.881"/><use xlink:href="#10" y="26.052"/><use xlink:href="#11" y="28.223"/><use xlink:href="#12" y="30.394"/></svg><svg x="400"><use xlink:href="#a"/><use xlink:href="#1"/><use xlink:href="#2" y="2.171"/><use xlink:href="#3" y="4.342"/><use xlink:href="#1" y="6.513"/><use xlink:href="#4" y="10.855"/><use xlink:href="#5" y="15.197"/><use xlink:href="#6" y="17.368"/><use xlink:href="#7" y="19.539"/><use xlink:href="#8" y="21.71"/><use xlink:href="#9" y="23.881"/><use xlink:href="#10" y="26.052"/><use xlink:href="#11" y="28.223"/><use xlink:href="#12" y="30.394"/><use xlink:href="#13" y="32.565"/><use xlink:href="#14" y="34.736"/></svg><svg x="480"><use xlink:href="#a"/><use xlink:href="#4"/><use xlink:href="#5" y="4.342"/><use xlink:href="#6" y="6.513"/><use xlink:href="#7" y="8.684"/><use xlink:href="#8" y="10.855"/><use xlink:href="#9" y="13.026"/><use xlink:href="#10" y="15.197"/><use xlink:href="#11" y="17.368"/><use xlink:href="#12" y="19.539"/><use xlink:href="#13" y="21.71"/><use xlink:href="#14" y="23.881"/><use xlink:href="#15" y="26.052"/><use xlink:href="#16" y="28.223"/><use xlink:href="#17" y="32.565"/><use xlink:href="#18" y="34.736"/><use xlink:href="#19" y="36.907"/><use xlink:href="#20" y="41.249"/><use xlink:href="#18" y="43.42"/><use xlink:href="#19" y="45.591"/></svg><svg x="560"><use xlink:href="#a"/><use xlink:href="#7"/><use xlink:href="#8" y="2.171"/><use xlink:href="#9" y="4.342"/><use xlink:href="#10" y="6.513"/><use xlink:href="#11" y="8.684"/><use xlink:href="#12" y="10.855"/><use xlink:href="#13" y="13.026"/><use xlink:href="#14" y="15.197"/><use xlink:href="#15" y="17.368"/><use xlink:href="#16" y="19.539"/><use xlink:href="#17" y="23.881"/><use xlink:href="#18" y="26.052"/><use xlink:href="#19" y="28.223"/><use xlink:href="#20" y="32.565"/><use xlink:href="#18" y="34.736"/><use xlink:href="#19" y="36.907"/><use xlink:href="#21" y="41.249"/><use xlink:href="#18" y="43.42"/><use xlink:href="#19" y="45.591"/></svg><svg x="640"><use xlink:href="#a"/><use xlink:href="#8"/><use xlink:href="#9" y="2.171"/><use xlink:href="#10" y="4.342"/><use xlink:href="#11" y="6.513"/><use xlink:href="#12" y="8.684"/><use xlink:href="#13" y="10.855"/><use xlink:href="#14" y="13.026"/><use xlink:href="#15" y="15.197"/><use xlink:href="#16" y="17.368"/><use xlink:href="#17" y="21.71"/><use xlink:href="#18" y="23.881"/><use xlink:href="#19" y="26.052"/><use xlink:href="#20" y="30.394"/><use xlink:href="#18" y="32.565"/><use xlink:href="#19" y="34.736"/><use xlink:href="#21" y="39.078"/><use xlink:href="#18" y="41.249"/><use xlink:href="#19" y="43.42"/><use xlink:href="#22" y="47.762"/></svg><svg x="720"><use xlink:href="#a"/><use xlink:href="#11"/><use xlink:href="#12" y="2.171"/><use xlink:href="#13" y="4.342"/><use xlink:href="#14" y="6.513"/><use xlink:href="#15" y="8.684"/><use xlink:href="#16" y="10.855"/><use xlink:href="#17" y="15.197"/><use xlink:href="#18" y="17.368"/><use xlink:href="#19" y="19.539"/><use xlink:href="#20" y="23.881"/><use xlink:href="#18" y="26.052"/><use xlink:href="#19" y="28.223"/><use xlink:href="#21" y="32.565"/><use xlink:href="#18" y="34.736"/><use xlink:href="#19" y="36.907"/><use xlink:href="#22" y="41.249"/><use xlink:href="#23" y="43.42"/><use xlink:href="#24" y="45.591"/></svg><svg x="800"><use xlink:href="#a"/><use xlink:href="#12"/><use xlink:href="#13" y="2.171"/><use xlink:href="#14" y="4.342"/><use xlink:href="#15" y="6.513"/><use xlink:href="#16" y="8.684"/><use xlink:href="#17" y="13.026"/><use xlink:href="#18" y="15.197"/><use xlink:href="#19" y="17.368"/><use xlink:href="#20" y="21.71"/><use xlink:href="#18" y="23.881"/><use xlink:href="#19" y="26.052"/><use xlink:href="#21" y="30.394"/><use xlink:href="#18" y="32.565"/><use xlink:href="#19" y="34.736"/><use xlink:href="#22" y="39.078"/><use xlink:href="#23" y="41.249"/><use xlink:href="#24" y="43.42"/><use xlink:href="#25" y="47.762"/></svg><svg x="880"><use xlink:href="#a"/><use xlink:href="#13"/><use xlink:href="#14" y="2.171"/><use xlink:href="#15" y="4.342"/><use xlink:href="#16" y="6.513"/><use xlink:href="#17" y="10.855"/><use xlink:href="#18" y="13.026"/><use xlink:href="#19" y="15.197"/><use xlink:href="#20" y="19.539"/><use xlink:href="#18" y="21.71"/><use xlink:href="#19" y="23.881"/><use xlink:href="#21" y="28.223"/><use xlink:href="#18" y="30.394"/><use xlink:href="#19" y="32.565"/><use xlink:href="#22" y="36.907"/><use xlink:href="#23" y="39.078"/><use xlink:href="#24" y="41.249"/><use xlink:href="#25" y="45.591"/></svg><svg x="960"><use xlink:href="#a"/><use xlink:href="#15"/><use xlink:href="#16" y="2.171"/><use xlink:href="#17" y="6.513"/><use xlink:href="#18" y="8.684"/><use xlink:href="#19" y="10.855"/><use xlink:href="#20" y="15.197"/><use xlink:href="#18" y="17.368"/><use xlink:href="#19" y="19.539"/><use xlink:href="#21" y="23.881"/><use xlink:href="#18" y="26.052"/><use xlink:href="#19" y="28.223"/><use xlink:href="#22" y="32.565"/><use xlink:href="#23" y="34.736"/><use xlink:href="#24" y="36.907"/><use xlink:href="#25" y="41.249"/><use xlink:href="#26" y="45.591"/><use xlink:href="#27" y="47.762"/></svg><svg x="1040"><use xlink:href="#a"/><use xlink:href="#18"/><use xlink:href="#19" y="2.171"/><use xlink:href="#21" y="6.513"/><use xlink:href="#18" y="8.684"/><use xlink:href="#19" y="10.855"/><use xlink:href="#22" y="15.197"/><use xlink:href="#23" y="17.368"/><use xlink:href="#24" y="19.539"/><use xlink:href="#25" y="23.881"/><use xlink:href="#26" y="28.223"/><use xlink:href="#27" y="30.394"/><use xlink:href="#28" y="32.565"/><use xlink:href="#29" y="34.736"/><use xlink:href="#30" y="36.907"/><use xlink:href="#31" y="39.078"/><use xlink:href="#32" y="43.42"/><use xlink:href="#33" y="47.762"/></svg><svg x="1120"><use xlink:href="#a"/><use xlink:href="#21" y="2.171"/><use xlink:href="#18" y="4.342"/><use xlink:href="#19" y="6.513"/><use xlink:href="#22" y="10.855"/><use xlink:href="#23" y="13.026"/><use xlink:href="#24" y="15.197"/><use xlink:href="#25" y="19.539"/><use xlink:href="#26" y="23.881"/><use xlink:href="#27" y="26.052"/><use xlink:href="#28" y="28.223"/><use xlink:href="#29" y="30.394"/><use xlink:href="#30" y="32.565"/><use xlink:href="#31" y="34.736"/><use xlink:href="#32" y="39.078"/><use xlink:href="#33" y="43.42"/><use xlink:href="#34" y="45.591"/><use xlink:href="#35" y="47.762"/></svg><svg x="1200"><use xlink:href="#a"/><use xlink:href="#18"/><use xlink:href="#19" y="2.171"/><use xlink:href="#22" y="6.513"/><use xlink:href="#23" y="8.684"/><use xlink:href="#24" y="10.855"/><use xlink:href="#25" y="15.197"/><use xlink:href="#26" y="19.539"/><use xlink:href="#27" y="21.71"/><use xlink:href="#28" y="23.881"/><use xlink:href="#29" y="26.052"/><use xlink:href="#30" y="28.223"/><use xlink:href="#31" y="30.394"/><use xlink:href="#32" y="34.736"/><use xlink:href="#33" y="39.078"/><use xlink:href="#34" y="41.249"/><use xlink:href="#35" y="43.42"/><use xlink:href="#36" y="45.591"/><use xlink:href="#37" y="47.762"/></svg><svg x="1280"><use xlink:href="#a"/><use xlink:href="#25" y="2.171"/><use xlink:href="#26" y="6.513"/><use xlink:href="#27" y="8.684"/><use xlink:href="#28" y="10.855"/><use xlink:href="#29" y="13.026"/><use xlink:href="#30" y="15.197"/><use xlink:href="#31" y="17.368"/><use xlink:href="#32" y="21.71"/><use xlink:href="#33" y="26.052"/><use xlink:href="#34" y="28.223"/><use xlink:href="#35" y="30.394"/><use xlink:href="#36" y="32.565"/><use xlink:href="#37" y="34.736"/><text x="3.006" y="38.577" class="c">Logged</text><text x="10.02" y="38.577" class="c">Actions:</text><text x="19.038" y="38.577" class="c">2</text><text x="3.006" y="40.748" class="c">Export:</text><text x="11.022" y="40.748" class="c">audit_export_20260421_141615.json</text><use xlink:href="#1" y="43.42"/><text x="2.004" y="47.261" class="c">Demo</text><text x="7.014" y="47.261" class="c">completed</text><text x="17.034" y="47.261" class="c">at</text><text x="20.04" y="47.261" class="c">2026-04-21</text><text x="31.062" y="47.261" class="c">14:16:15</text><use xlink:href="#1" y="47.762"/></svg></svg></g></g></svg></svg>