<svg xmlns="http://www.w3.org/2000/svg" xmlns:xlink="http://www.w3.org/1999/xlink" width="800" height="521.04"><rect width="800" height="521.04" rx="0" ry="0" class="a"/><svg height="521.04" viewBox="0 0 80 52.104" width="800" xmlns="http://www.w3.org/2000/svg" xmlns:xlink="http://www.w3.org/1999/xlink"><style>@keyframes e{0%{transform:translateX(0)}98.3%{transform:translateX(-80px)}99.5%{transform:translateX(-160px)}99.6%{transform:translateX(-240px)}to{transform:translateX(-400px)}}.a{fill:#282d35}.c{fill:#b9c0cb;white-space:pre}</style><g font-family="Monaco,Consolas,Menlo,'Bitstream Vera Sans Mono','Powerline Symbols',monospace" font-size="1.67"><defs><symbol id="1"><text y="1.67" class="c">======================================================================</text></symbol><symbol id="2"><text x="2.004" y="1.67" class="c">KaliAgent</text><text x="12.024" y="1.67" class="c">v3</text><text x="15.03" y="1.67" class="c">-</text><text x="17.034" y="1.67" class="c">Tool</text><text x="22.044" y="1.67" class="c">Database</text><text x="31.062" y="1.67" class="c">Management</text></symbol><symbol id="3"><text x="2.004" y="1.67" class="c">Production</text><text x="13.026" y="1.67" class="c">Security</text><text x="22.044" y="1.67" class="c">Automation</text><text x="33.066" y="1.67" class="c">Framework</text></symbol><symbol id="4"><text y="1.67" class="c">2026-04-21</text><text x="11.022" y="1.67" class="c">14:15:08,717</text><text x="24.048" y="1.67" class="c">-</text><text x="26.052" y="1.67" class="c">INFO</text><text x="31.062" y="1.67" class="c">-</text><text x="33.066" y="1.67" class="c">Loaded</text><text x="40.08" y="1.67" class="c">database</text><text x="49.098" y="1.67" class="c">with</text><text x="54.108" y="1.67" class="c">67</text><text x="57.114" y="1.67" class="c">tools</text></symbol><symbol id="5"><text y="1.67" class="c">📁</text><text x="3.006" y="1.67" class="c">Tool</text><text x="8.016" y="1.67" class="c">Categories:</text></symbol><symbol id="6"><text x="3.006" y="1.67" class="c">information-gathering</text><text x="29.058" y="1.67" class="c">██████████</text><text x="41.082" y="1.67" class="c">10</text><text x="44.088" y="1.67" class="c">tools</text></symbol><symbol id="7"><text x="3.006" y="1.67" class="c">vulnerability-analysis</text><text x="29.058" y="1.67" class="c">█████</text><text x="37.074" y="1.67" class="c">5</text><text x="39.078" y="1.67" class="c">tools</text></symbol><symbol id="8"><text x="3.006" y="1.67" class="c">web-application</text><text x="29.058" y="1.67" class="c">█████████</text><text x="41.082" y="1.67" class="c">9</text><text x="43.086" y="1.67" class="c">tools</text></symbol><symbol id="9"><text x="3.006" y="1.67" class="c">exploitation</text><text x="29.058" y="1.67" class="c">█████</text><text x="37.074" y="1.67" class="c">5</text><text x="39.078" y="1.67" class="c">tools</text></symbol><symbol id="10"><text x="3.006" y="1.67" class="c">database</text><text x="29.058" y="1.67" class="c">██</text><text x="34.068" y="1.67" class="c">2</text><text x="36.072" y="1.67" class="c">tools</text></symbol><symbol id="11"><text x="3.006" y="1.67" class="c">password</text><text x="29.058" y="1.67" class="c">████████</text><text x="40.08" y="1.67" class="c">8</text><text x="42.084" y="1.67" class="c">tools</text></symbol><symbol id="12"><text x="3.006" y="1.67" class="c">wireless</text><text x="29.058" y="1.67" class="c">██████</text><text x="38.076" y="1.67" class="c">6</text><text x="40.08" y="1.67" class="c">tools</text></symbol><symbol id="13"><text x="3.006" y="1.67" class="c">...</text><text x="7.014" y="1.67" class="c">and</text><text x="11.022" y="1.67" class="c">5</text><text x="13.026" y="1.67" class="c">more</text><text x="18.036" y="1.67" class="c">categories</text></symbol><symbol id="14"><text y="1.67" class="c">🔍</text><text x="3.006" y="1.67" class="c">Search</text><text x="10.02" y="1.67" class="c">Demo:</text><text x="16.032" y="1.67" class="c">&apos;nmap&apos;</text></symbol><symbol id="15"><text y="1.67" class="c">2026-04-21</text><text x="11.022" y="1.67" class="c">14:15:08,718</text><text x="24.048" y="1.67" class="c">-</text><text x="26.052" y="1.67" class="c">INFO</text><text x="31.062" y="1.67" class="c">-</text><text x="33.066" y="1.67" class="c">Search</text><text x="40.08" y="1.67" class="c">&apos;nmap&apos;</text><text x="47.094" y="1.67" class="c">found</text><text x="53.106" y="1.67" class="c">2</text><text x="55.11" y="1.67" class="c">tools</text></symbol><symbol id="16"><text x="3.006" y="1.67" class="c">✓</text><text x="5.01" y="1.67" class="c">nmap</text><text x="21.042" y="1.67" class="c">-</text><text x="23.046" y="1.67" class="c">Network</text><text x="31.062" y="1.67" class="c">exploration</text><text x="43.086" y="1.67" class="c">and</text><text x="47.094" y="1.67" class="c">security</text><text x="56.112" y="1.67" class="c">auditing</text></symbol><symbol id="17"><text x="3.006" y="1.67" class="c">✓</text><text x="5.01" y="1.67" class="c">ncrack</text><text x="21.042" y="1.67" class="c">-</text><text x="23.046" y="1.67" class="c">Network</text><text x="31.062" y="1.67" class="c">authentication</text><text x="46.092" y="1.67" class="c">cracker</text></symbol><symbol id="18"><text y="1.67" class="c">🎯</text><text x="3.006" y="1.67" class="c">Top</text><text x="7.014" y="1.67" class="c">Tools:</text></symbol><symbol id="19"><text x="3.006" y="1.67" class="c">1.</text><text x="6.012" y="1.67" class="c">nmap</text><text x="22.044" y="1.67" class="c">(Priority:</text><text x="33.066" y="1.67" class="c">10/10)</text></symbol><symbol id="20"><text x="3.006" y="1.67" class="c">2.</text><text x="6.012" y="1.67" class="c">burpsuite</text><text x="22.044" y="1.67" class="c">(Priority:</text><text x="33.066" y="1.67" class="c">10/10)</text></symbol><symbol id="21"><text x="3.006" y="1.67" class="c">3.</text><text x="6.012" y="1.67" class="c">sqlmap</text><text x="22.044" y="1.67" class="c">(Priority:</text><text x="33.066" y="1.67" class="c">10/10)</text></symbol><symbol id="22"><text x="3.006" y="1.67" class="c">4.</text><text x="6.012" y="1.67" class="c">john</text><text x="22.044" y="1.67" class="c">(Priority:</text><text x="33.066" y="1.67" class="c">10/10)</text></symbol><symbol id="23"><text x="3.006" y="1.67" class="c">5.</text><text x="6.012" y="1.67" class="c">hashcat</text><text x="22.044" y="1.67" class="c">(Priority:</text><text x="33.066" y="1.67" class="c">10/10)</text></symbol><symbol id="a"><path fill="transparent" d="M0 0h80v24H0z"/></symbol></defs><path class="a" d="M0 0h80v52.104H0z"/><g style="animation-duration:.037542s;animation-iteration-count:infinite;animation-name:e;animation-timing-function:steps(1,end)"><svg width="480"><svg><use xlink:href="#a"/></svg><svg x="80"><use xlink:href="#a"/><use xlink:href="#1"/><use xlink:href="#2" y="2.171"/><use xlink:href="#3" y="4.342"/><use xlink:href="#1" y="6.513"/></svg><svg x="160"><use xlink:href="#a"/><use xlink:href="#1"/><use xlink:href="#2" y="2.171"/><use xlink:href="#3" y="4.342"/><use xlink:href="#1" y="6.513"/><use xlink:href="#4" y="10.855"/></svg><svg x="240"><use xlink:href="#a"/><use xlink:href="#1"/><use xlink:href="#2" y="2.171"/><use xlink:href="#3" y="4.342"/><use xlink:href="#1" y="6.513"/><use xlink:href="#4" y="10.855"/><text y="14.696" class="c">📊</text><text x="3.006" y="14.696" class="c">Database</text><text x="12.024" y="14.696" class="c">Statistics</text><text x="3.006" y="16.867" class="c">Total</text><text x="9.018" y="16.867" class="c">Tools:</text><text x="20.04" y="16.867" class="c">67</text><text x="3.006" y="19.038" class="c">Installed:</text><text x="20.04" y="19.038" class="c">2</text><text x="3.006" y="21.209" class="c">Coverage:</text><text x="20.04" y="21.209" class="c">2.99%</text><text x="3.006" y="23.38" class="c">Total</text><text x="9.018" y="23.38" class="c">Size:</text><text x="20.04" y="23.38" class="c">1.76</text><text x="25.05" y="23.38" class="c">GB</text><use xlink:href="#5" y="26.052"/><use xlink:href="#6" y="28.223"/><use xlink:href="#7" y="30.394"/><use xlink:href="#8" y="32.565"/><use xlink:href="#9" y="34.736"/><use xlink:href="#10" y="36.907"/><use xlink:href="#11" y="39.078"/><use xlink:href="#12" y="41.249"/><use xlink:href="#13" y="43.42"/><use xlink:href="#14" y="47.762"/></svg><svg x="320"><use xlink:href="#a"/><use xlink:href="#5"/><use xlink:href="#6" y="2.171"/><use xlink:href="#7" y="4.342"/><use xlink:href="#8" y="6.513"/><use xlink:href="#9" y="8.684"/><use xlink:href="#10" y="10.855"/><use xlink:href="#11" y="13.026"/><use xlink:href="#12" y="15.197"/><use xlink:href="#13" y="17.368"/><use xlink:href="#14" y="21.71"/><use xlink:href="#15" y="23.881"/><use xlink:href="#16" y="26.052"/><use xlink:href="#17" y="28.223"/><use xlink:href="#18" y="32.565"/><use xlink:href="#19" y="34.736"/><use xlink:href="#20" y="36.907"/><use xlink:href="#21" y="39.078"/><use xlink:href="#22" y="41.249"/><use xlink:href="#23" y="43.42"/><use xlink:href="#1" y="47.762"/></svg><svg x="400"><use xlink:href="#a"/><use xlink:href="#7"/><use xlink:href="#8" y="2.171"/><use xlink:href="#9" y="4.342"/><use xlink:href="#10" y="6.513"/><use xlink:href="#11" y="8.684"/><use xlink:href="#12" y="10.855"/><use xlink:href="#13" y="13.026"/><use xlink:href="#14" y="17.368"/><use xlink:href="#15" y="19.539"/><use xlink:href="#16" y="21.71"/><use xlink:href="#17" y="23.881"/><use xlink:href="#18" y="28.223"/><use xlink:href="#19" y="30.394"/><use xlink:href="#20" y="32.565"/><use xlink:href="#21" y="34.736"/><use xlink:href="#22" y="36.907"/><use xlink:href="#23" y="39.078"/><use xlink:href="#1" y="43.42"/><text x="2.004" y="47.261" class="c">Demo</text><text x="7.014" y="47.261" class="c">completed</text><text x="17.034" y="47.261" class="c">at</text><text x="20.04" y="47.261" class="c">2026-04-21</text><text x="31.062" y="47.261" class="c">14:15:08</text><use xlink:href="#1" y="47.762"/></svg></svg></g></g></svg></svg>